# xmcd CD database file
#
# Track frame offsets:
#	150
#	16850
#	30035
#	45062
#	56167
#	70612
#	89872
#	108107
#	126025
#	144507
#	164810
#	171722
#	196840
#
# Disc length: 4440 seconds
#
# Revision: 1
# Processed by: cddbd v1.5PL3 Copyright (c) Steve Scherf et al.
# Submitted via: CDex 1.51
#
DISCID=a911560d
DTITLE=サウンドトラック - SISTER ACT BEST
DYEAR=2004
DGENRE=Gospel
TTITLE0=THE LOUNGE MEDLEY
TTITLE1=RESCUE ME
TTITLE2=HAIL HOLY QUEEN
TTITLE3=MY GUY (MY GOD)
TTITLE4=FINALE:I WILL FOLLOW HIM ["CHARIOT"]
TTITLE5=SHOUT
TTITLE6=THE GREATEST MEDLEY EVER TOLD
TTITLE7=OH HAPPY DAY
TTITLE8=A DEEPER LOVE
TTITLE9=PAY ATTENTION
TTITLE10=ODE TO JOY
TTITLE11=ANI'T NO MOUNTAIN HIGH ENOUGH
TTITLE12=CCCD-DETA
EXTD=YEAR: 2004
EXTT0=
EXTT1=
EXTT2=
EXTT3=
EXTT4=
EXTT5=
EXTT6=
EXTT7=
EXTT8=
EXTT9=
EXTT10=
EXTT11=
EXTT12=
PLAYORDER=
